<svg width="36" height="42" viewBox="0 0 36 42" fill="none" xmlns="http://www.w3.org/2000/svg">
<path d="M4.75461 41.1578C7.17259 41.1578 9.13275 39.1976 9.13275 36.7796C9.13275 34.3617 7.17259 32.4015 4.75461 32.4015C2.33662 32.4015 0.376465 34.3617 0.376465 36.7796C0.376465 39.1976 2.33662 41.1578 4.75461 41.1578Z" fill="#233873"/>
<path d="M17.8908 32.4015C20.309 32.4015 22.269 34.3632 22.269 36.7796C22.269 39.1995 20.309 41.1578 17.8908 41.1578C15.4727 41.1578 13.5127 39.1978 13.5127 36.7796C13.5109 34.3632 15.4727 32.4015 17.8908 32.4015Z" fill="#233873"/>
<path d="M35.4051 36.7796C35.4051 39.1976 33.4449 41.1578 31.0269 41.1578C28.609 41.1578 26.6488 39.1976 26.6488 36.7796C26.6488 34.3617 28.609 32.4015 31.0269 32.4015C33.4449 32.4015 35.4051 34.3617 35.4051 36.7796Z" fill="#233873"/>
<path d="M26.4455 28.5486H31.9552C32.3376 28.5486 32.5942 28.1662 32.4444 27.8217L20.4191 0.590101C20.3347 0.397201 20.1418 0.273193 19.93 0.273193H14.341C13.9587 0.273193 13.7003 0.657272 13.8519 1.00174L25.9564 28.2334C26.0408 28.4246 26.2337 28.5486 26.4455 28.5486Z" fill="#F5BB05"/>
<path d="M10.2092 28.5487C10.4245 28.5487 10.6157 28.423 10.6983 28.2301L16.053 15.6554C16.1099 15.5245 16.1081 15.3781 16.0513 15.2507L13.2319 8.83672C13.0493 8.4182 12.443 8.4182 12.2605 8.83672L5.98089 23.1768C5.94127 23.2663 5.85343 23.3232 5.75526 23.3232H3.99677C3.70397 23.3232 3.46802 23.5557 3.46802 23.8416V28.0303C3.46802 28.3162 3.70397 28.5487 3.99677 28.5487H10.2092Z" fill="#FFA200"/>
</svg>
